M48
; DRILL file {KiCad 7.0.2-0} date 2023 May 27, Saturday 18:04:32
; FORMAT={-:-/ absolute / inch / decimal}
; #@! TF.CreationDate,2023-05-27T18:04:32+01:00
; #@! TF.GenerationSoftware,Kicad,Pcbnew,7.0.2-0
; #@! TF.FileFunction,NonPlated,1,2,NPTH
FMAT,2
INCH
; #@! TA.AperFunction,NonPlated,NPTH,ComponentDrill
T1C0.0197
; #@! TA.AperFunction,NonPlated,NPTH,ComponentDrill
T2C0.0709
; #@! TA.AperFunction,NonPlated,NPTH,ComponentDrill
T3C0.1260
%
G90
G05
T1
X10.1142Y-0.9606
X10.1142Y-0.9902
X10.1142Y-1.0197
X10.1142Y-1.4705
X10.1142Y-1.5
X10.1142Y-1.5295
X10.1142Y-2.0
X10.1142Y-2.0295
X10.1142Y-2.0591
X10.1142Y-2.5236
X10.1142Y-2.5531
X10.1142Y-2.5827
X10.1142Y-3.0472
X10.1142Y-3.0768
X10.1142Y-3.1063
X10.1732Y-0.9606
X10.1732Y-0.9902
X10.1732Y-1.0197
X10.1732Y-1.4705
X10.1732Y-1.5
X10.1732Y-1.5295
X10.1732Y-2.0
X10.1732Y-2.0295
X10.1732Y-2.0591
X10.1732Y-2.5236
X10.1732Y-2.5531
X10.1732Y-2.5827
X10.1732Y-3.0472
X10.1732Y-3.0768
X10.1732Y-3.1063
X10.2744Y-2.2531
X10.2744Y-2.3122
X10.275Y-2.7768
X10.275Y-2.8358
X10.2756Y-1.2106
X10.2756Y-1.2697
X10.2776Y-1.7303
X10.2776Y-1.7894
X10.3039Y-2.2531
X10.3039Y-2.3122
X10.3045Y-2.7768
X10.3045Y-2.8358
X10.3051Y-1.2106
X10.3051Y-1.2697
X10.3071Y-1.7303
X10.3071Y-1.7894
X10.3335Y-2.2531
X10.3335Y-2.3122
X10.3341Y-2.7768
X10.3341Y-2.8358
X10.3346Y-1.2106
X10.3346Y-1.2697
X10.3366Y-1.7303
X10.3366Y-1.7894
X10.4374Y-1.9835
X10.4374Y-2.013
X10.4374Y-2.0425
X10.4402Y-2.5217
X10.4402Y-2.5512
X10.4402Y-2.5807
X10.4409Y-3.0512
X10.4409Y-3.0807
X10.4409Y-3.1102
X10.4965Y-1.9835
X10.4965Y-2.013
X10.4965Y-2.0425
X10.4992Y-2.5217
X10.4992Y-2.5512
X10.4992Y-2.5807
X10.5Y-3.0512
X10.5Y-3.0807
X10.5Y-3.1102
X10.6012Y-2.7748
X10.6012Y-2.8339
X10.602Y-2.2516
X10.602Y-2.3106
X10.6307Y-2.7748
X10.6307Y-2.8339
X10.6315Y-2.2516
X10.6315Y-2.3106
X10.6602Y-2.7748
X10.6602Y-2.8339
X10.661Y-2.2516
X10.661Y-2.3106
T2
X3.8133Y-1.1132
X3.8133Y-1.7132
X5.4133Y-1.1132
X5.4133Y-1.7132
T3
X3.9028Y-0.9323
X3.903Y-3.1093
X9.9267Y-0.9439
X9.9267Y-3.1093
T0
M30
