%TF.GenerationSoftware,KiCad,Pcbnew,7.0.2-0*%
%TF.CreationDate,2023-05-27T18:04:37+01:00*%
%TF.ProjectId,olfactory_display,6f6c6661-6374-46f7-9279-5f646973706c,rev?*%
%TF.SameCoordinates,Original*%
%TF.FileFunction,Profile,NP*%
%FSLAX46Y46*%
G04 Gerber Fmt 4.6, Leading zero omitted, Abs format (unit mm)*
G04 Created by KiCad (PCBNEW 7.0.2-0) date 2023-05-27 18:04:37*
%MOMM*%
%LPD*%
G01*
G04 APERTURE LIST*
%TA.AperFunction,Profile*%
%ADD10C,0.100000*%
%TD*%
G04 APERTURE END LIST*
D10*
X264850000Y-53130000D02*
X264820000Y-57010000D01*
X264810000Y-45710000D02*
X264860000Y-49130000D01*
X268040000Y-58940000D02*
X266970000Y-59010000D01*
X272040000Y-58940000D02*
X273110000Y-59010000D01*
X266860000Y-49130000D02*
X266930000Y-45750000D01*
X266930000Y-56940000D02*
X266850000Y-53130000D01*
X268040000Y-56940000D02*
X266930000Y-56940000D01*
X273090000Y-56930000D02*
X272040000Y-56940000D01*
X273090000Y-45750000D02*
X273090000Y-56930000D01*
X266930000Y-45750000D02*
X273090000Y-45750000D01*
X272040000Y-56940000D02*
G75*
G03*
X272040000Y-58940000I0J-1000000D01*
G01*
X268040000Y-58940000D02*
G75*
G03*
X268040000Y-56940000I0J1000000D01*
G01*
X266850000Y-53130000D02*
G75*
G03*
X264850000Y-53130000I-1000000J0D01*
G01*
X264860000Y-49130000D02*
G75*
G03*
X266860000Y-49130000I1000000J0D01*
G01*
X266960000Y-70230000D02*
X268020000Y-70230000D01*
X266920000Y-66800000D02*
X266960000Y-70230000D01*
X266970000Y-59010000D02*
X266930000Y-62800000D01*
X273110000Y-70190000D02*
X273110000Y-59010000D01*
X272020000Y-70230000D02*
X273110000Y-70190000D01*
X264930000Y-62800000D02*
X264870000Y-59010000D01*
X264920000Y-66800000D02*
X264870000Y-70250000D01*
X266920000Y-66800000D02*
G75*
G03*
X264920000Y-66800000I-1000000J0D01*
G01*
X264930000Y-62800000D02*
G75*
G03*
X266930000Y-62800000I1000000J0D01*
G01*
X266910000Y-72300000D02*
X268020000Y-72230000D01*
X273030000Y-72300000D02*
X272020000Y-72230000D01*
X272020000Y-70230000D02*
G75*
G03*
X272020000Y-72230000I0J-1000000D01*
G01*
X268020000Y-72230000D02*
G75*
G03*
X268020000Y-70230000I0J1000000D01*
G01*
X94637145Y-83475000D02*
X94637145Y-19475000D01*
X256650000Y-23150000D02*
X256637145Y-19475000D01*
X256650000Y-36100000D02*
X256650000Y-27150000D01*
X256650000Y-49550000D02*
X256650000Y-40100000D01*
X256650000Y-62850000D02*
X256650000Y-53550000D01*
X256650000Y-76150000D02*
X256650000Y-66850000D01*
X256637145Y-83475000D02*
X256650000Y-80150000D01*
X266900000Y-83480000D02*
X266910000Y-80230000D01*
X273030000Y-83480000D02*
X266900000Y-83480000D01*
X273030000Y-72300000D02*
X273030000Y-83480000D01*
X266910000Y-76230000D02*
X266910000Y-72300000D01*
X264840000Y-72310000D02*
X263690000Y-72270000D01*
X264910000Y-76230000D02*
X264840000Y-72310000D01*
X264850000Y-83510000D02*
X264910000Y-80230000D01*
X258650000Y-83510000D02*
X264850000Y-83510000D01*
X258650000Y-80150000D02*
X258650000Y-83510000D01*
X258640000Y-72260000D02*
X258650000Y-76150000D01*
X259700000Y-72260000D02*
X258640000Y-72260000D01*
X258650000Y-59010000D02*
X259690000Y-59000000D01*
X258650000Y-62850000D02*
X258650000Y-59010000D01*
X258710000Y-70260000D02*
X258650000Y-66850000D01*
X259700000Y-70260000D02*
X258710000Y-70260000D01*
X264870000Y-70250000D02*
X263690000Y-70250000D01*
X263700000Y-59010000D02*
X264870000Y-59010000D01*
X264810000Y-45710000D02*
X263760000Y-45680000D01*
X263700000Y-57010000D02*
X264820000Y-57010000D01*
X258640000Y-57000000D02*
X258650000Y-56880000D01*
X259690000Y-57000000D02*
X258640000Y-57000000D01*
X258650000Y-53550000D02*
X258650000Y-56880000D01*
X258670000Y-45680000D02*
X258650000Y-49550000D01*
X259760000Y-45680000D02*
X258670000Y-45680000D01*
X264810000Y-32500000D02*
X263710000Y-32480000D01*
X264810000Y-43680000D02*
X264810000Y-32500000D01*
X263760000Y-43680000D02*
X264810000Y-43680000D01*
X258650000Y-43690000D02*
X259760000Y-43680000D01*
X258650000Y-40100000D02*
X258650000Y-43690000D01*
X258690000Y-32480000D02*
X258650000Y-36100000D01*
X259710000Y-32480000D02*
X258690000Y-32480000D01*
X263710000Y-30480000D02*
X264760000Y-30480000D01*
X258650000Y-30480000D02*
X259710000Y-30480000D01*
X258650000Y-27150000D02*
X258650000Y-30480000D01*
X258660000Y-19380000D02*
X258650000Y-23150000D01*
X259700000Y-72260000D02*
G75*
G03*
X259700000Y-70260000I0J1000000D01*
G01*
X263690000Y-70250000D02*
G75*
G03*
X263690000Y-72270000I0J-1010000D01*
G01*
X264910000Y-76230000D02*
G75*
G03*
X266910000Y-76230000I1000000J0D01*
G01*
X266910000Y-80230000D02*
G75*
G03*
X264910000Y-80230000I-1000000J0D01*
G01*
X258650000Y-80150000D02*
G75*
G03*
X256650000Y-80150000I-1000000J0D01*
G01*
X256650000Y-76150000D02*
G75*
G03*
X258650000Y-76150000I1000000J0D01*
G01*
X258650000Y-66850000D02*
G75*
G03*
X256650000Y-66850000I-1000000J0D01*
G01*
X256650000Y-62850000D02*
G75*
G03*
X258650000Y-62850000I1000000J0D01*
G01*
X259690000Y-59000000D02*
G75*
G03*
X259690000Y-57000000I0J1000000D01*
G01*
X263700000Y-57010000D02*
G75*
G03*
X263700000Y-59010000I0J-1000000D01*
G01*
X258650000Y-53550000D02*
G75*
G03*
X256650000Y-53550000I-1000000J0D01*
G01*
X256650000Y-49550000D02*
G75*
G03*
X258650000Y-49550000I1000000J0D01*
G01*
X263760000Y-43680000D02*
G75*
G03*
X263760000Y-45680000I0J-1000000D01*
G01*
X259760000Y-45680000D02*
G75*
G03*
X259760000Y-43680000I0J1000000D01*
G01*
X258650000Y-40100000D02*
G75*
G03*
X256650000Y-40100000I-1000000J0D01*
G01*
X256650000Y-36100000D02*
G75*
G03*
X258650000Y-36100000I1000000J0D01*
G01*
X263710000Y-30480000D02*
G75*
G03*
X263710000Y-32480000I0J-1000000D01*
G01*
X259710000Y-32480000D02*
G75*
G03*
X259710000Y-30480000I0J1000000D01*
G01*
X258650000Y-27150000D02*
G75*
G03*
X256650000Y-27150000I-1000000J0D01*
G01*
X256650000Y-23150000D02*
G75*
G03*
X258650000Y-23150000I1000000J0D01*
G01*
X264760000Y-19380000D02*
X264760000Y-30480000D01*
X258660000Y-19380000D02*
X264760000Y-19380000D01*
X256637145Y-19475000D02*
X94637145Y-19475000D01*
X94637145Y-83475000D02*
X256637145Y-83475000D01*
M02*
