%TF.GenerationSoftware,KiCad,Pcbnew,7.0.2-0*%
%TF.CreationDate,2023-05-27T18:04:37+01:00*%
%TF.ProjectId,olfactory_display,6f6c6661-6374-46f7-9279-5f646973706c,rev?*%
%TF.SameCoordinates,Original*%
%TF.FileFunction,Legend,Bot*%
%TF.FilePolarity,Positive*%
%FSLAX46Y46*%
G04 Gerber Fmt 4.6, Leading zero omitted, Abs format (unit mm)*
G04 Created by KiCad (PCBNEW 7.0.2-0) date 2023-05-27 18:04:37*
%MOMM*%
%LPD*%
G01*
G04 APERTURE LIST*
%ADD10C,0.075000*%
G04 APERTURE END LIST*
D10*
%TO.C,XA1*%
X132048097Y-29948690D02*
X132048097Y-30448690D01*
X132048097Y-30448690D02*
X132167145Y-30448690D01*
X132167145Y-30448690D02*
X132238573Y-30424880D01*
X132238573Y-30424880D02*
X132286192Y-30377261D01*
X132286192Y-30377261D02*
X132310002Y-30329642D01*
X132310002Y-30329642D02*
X132333811Y-30234404D01*
X132333811Y-30234404D02*
X132333811Y-30162976D01*
X132333811Y-30162976D02*
X132310002Y-30067738D01*
X132310002Y-30067738D02*
X132286192Y-30020119D01*
X132286192Y-30020119D02*
X132238573Y-29972500D01*
X132238573Y-29972500D02*
X132167145Y-29948690D01*
X132167145Y-29948690D02*
X132048097Y-29948690D01*
X132643335Y-30448690D02*
X132690954Y-30448690D01*
X132690954Y-30448690D02*
X132738573Y-30424880D01*
X132738573Y-30424880D02*
X132762383Y-30401071D01*
X132762383Y-30401071D02*
X132786192Y-30353452D01*
X132786192Y-30353452D02*
X132810002Y-30258214D01*
X132810002Y-30258214D02*
X132810002Y-30139166D01*
X132810002Y-30139166D02*
X132786192Y-30043928D01*
X132786192Y-30043928D02*
X132762383Y-29996309D01*
X132762383Y-29996309D02*
X132738573Y-29972500D01*
X132738573Y-29972500D02*
X132690954Y-29948690D01*
X132690954Y-29948690D02*
X132643335Y-29948690D01*
X132643335Y-29948690D02*
X132595716Y-29972500D01*
X132595716Y-29972500D02*
X132571907Y-29996309D01*
X132571907Y-29996309D02*
X132548097Y-30043928D01*
X132548097Y-30043928D02*
X132524288Y-30139166D01*
X132524288Y-30139166D02*
X132524288Y-30258214D01*
X132524288Y-30258214D02*
X132548097Y-30353452D01*
X132548097Y-30353452D02*
X132571907Y-30401071D01*
X132571907Y-30401071D02*
X132595716Y-30424880D01*
X132595716Y-30424880D02*
X132643335Y-30448690D01*
%TD*%
M02*
