M48
; DRILL file {KiCad 7.0.2-0} date 2023 May 27, Saturday 18:04:32
; FORMAT={-:-/ absolute / inch / decimal}
; #@! TF.CreationDate,2023-05-27T18:04:32+01:00
; #@! TF.GenerationSoftware,Kicad,Pcbnew,7.0.2-0
; #@! TF.FileFunction,Plated,1,2,PTH
FMAT,2
INCH
; #@! TA.AperFunction,Plated,PTH,ViaDrill
T1C0.0157
; #@! TA.AperFunction,Plated,PTH,ComponentDrill
T2C0.0240
; #@! TA.AperFunction,Plated,PTH,ComponentDrill
T3C0.0276
; #@! TA.AperFunction,Plated,PTH,ComponentDrill
T4C0.0315
; #@! TA.AperFunction,Plated,PTH,ComponentDrill
T5C0.0394
; #@! TA.AperFunction,Plated,PTH,ComponentDrill
T6C0.0400
%
G90
G05
T1
X4.6909Y-2.1858
X4.9465Y-1.9835
X5.4547Y-2.2268
X5.7591Y-2.2343
T2
X6.2416Y-1.1699
X6.2416Y-1.5699
X6.5416Y-1.0683
X6.5416Y-1.6699
X6.8196Y-1.1675
X6.8196Y-1.5675
X7.1196Y-1.0659
X7.1196Y-1.6675
X7.3826Y-1.1675
X7.3826Y-1.5675
X7.6826Y-1.0659
X7.6826Y-1.6675
X7.9621Y-1.1699
X7.9621Y-1.5699
X8.2621Y-1.0683
X8.2621Y-1.6699
X8.5286Y-1.1695
X8.5286Y-1.5695
X8.8286Y-1.0679
X8.8286Y-1.6695
X9.1109Y-1.1675
X9.1109Y-1.5675
X9.4109Y-1.0659
X9.4109Y-1.6675
T3
X5.5665Y-1.1126
X5.7941Y-1.8189
X6.6819Y-1.2638
X7.2512Y-1.2528
X7.8213Y-1.2484
X8.3957Y-1.2465
X8.9661Y-1.2406
X9.6642Y-1.3764
T4
X3.9227Y-1.9557
X3.9227Y-2.0344
X4.3085Y-2.6801
X4.3085Y-2.7589
X4.3085Y-2.8376
X4.3085Y-2.9163
X5.5221Y-2.5951
X5.5221Y-2.9951
X5.6221Y-2.5951
X5.6221Y-2.9951
X5.7221Y-2.5951
X5.7221Y-2.9951
X5.8221Y-2.5951
X5.8221Y-2.9951
X5.8322Y-1.4951
X5.8322Y-1.5738
X5.9221Y-2.5951
X5.9221Y-2.9951
X5.9798Y-1.8199
X5.9798Y-1.8986
X6.0221Y-2.5951
X6.0221Y-2.9951
X6.1221Y-2.5951
X6.1221Y-2.9951
X6.2221Y-2.5951
X6.2221Y-2.9951
X7.7404Y-2.5581
X7.7404Y-2.9581
X7.8404Y-2.5581
X7.8404Y-2.9581
X7.9404Y-2.5581
X7.9404Y-2.9581
X8.0404Y-2.5581
X8.0404Y-2.9581
X8.1404Y-2.5581
X8.1404Y-2.9581
X8.2404Y-2.5581
X8.2404Y-2.9581
X8.3404Y-2.5581
X8.3404Y-2.9581
X8.4404Y-2.5581
X8.4404Y-2.9581
X8.8587Y-2.5656
X8.8587Y-2.9656
X8.9587Y-2.5656
X8.9587Y-2.9656
X9.0587Y-2.5656
X9.0587Y-2.9656
X9.1587Y-2.5656
X9.1587Y-2.9656
X9.2587Y-2.5656
X9.2587Y-2.9656
X9.3587Y-2.5656
X9.3587Y-2.9656
X9.4587Y-2.5656
X9.4587Y-2.9656
X9.5587Y-2.5656
X9.5587Y-2.9656
X9.9463Y-1.9715
X9.9463Y-2.0502
T5
X4.1475Y-1.9856
X4.1475Y-2.0856
X4.1475Y-2.1856
X4.1475Y-2.2856
X4.2475Y-1.9856
X4.2475Y-2.0856
X4.2475Y-2.1856
X4.2475Y-2.2856
X5.1727Y-1.9852
X5.1727Y-2.0852
X5.1727Y-2.1852
X5.1727Y-2.2852
X5.2727Y-1.9852
X5.2727Y-2.0852
X5.2727Y-2.1852
X5.2727Y-2.2852
X6.1963Y-1.9852
X6.1963Y-2.0852
X6.1963Y-2.1852
X6.1963Y-2.2852
X6.2963Y-1.9852
X6.2963Y-2.0852
X6.2963Y-2.1852
X6.2963Y-2.2852
X7.5349Y-1.9841
X7.5349Y-2.0841
X7.5349Y-2.1841
X7.5349Y-2.2841
X7.6349Y-1.9841
X7.6349Y-2.0841
X7.6349Y-2.1841
X7.6349Y-2.2841
X8.5589Y-1.9841
X8.5589Y-2.0841
X8.5589Y-2.1841
X8.5589Y-2.2841
X8.6589Y-1.9841
X8.6589Y-2.0841
X8.6589Y-2.1841
X8.6589Y-2.2841
X9.5826Y-1.9817
X9.5826Y-2.0817
X9.5826Y-2.1817
X9.5826Y-2.2817
X9.6826Y-1.9817
X9.6826Y-2.0817
X9.6826Y-2.1817
X9.6826Y-2.2817
X10.2543Y-0.8331
X10.2543Y-0.9331
X10.2543Y-1.0331
X10.2543Y-1.1331
X10.2543Y-2.3961
X10.2543Y-2.4961
X10.2543Y-2.5961
X10.2543Y-2.6961
X10.2563Y-1.8732
X10.2563Y-1.9732
X10.2563Y-2.0732
X10.2563Y-2.1732
X10.2571Y-1.3504
X10.2571Y-1.4504
X10.2571Y-1.5504
X10.2571Y-1.6504
X10.2577Y-2.9165
X10.2577Y-3.0165
X10.2577Y-3.1165
X10.2577Y-3.2165
X10.3543Y-0.8331
X10.3543Y-0.9331
X10.3543Y-1.0331
X10.3543Y-1.1331
X10.3543Y-2.3961
X10.3543Y-2.4961
X10.3543Y-2.5961
X10.3543Y-2.6961
X10.3563Y-1.8732
X10.3563Y-1.9732
X10.3563Y-2.0732
X10.3563Y-2.1732
X10.3571Y-1.3504
X10.3571Y-1.4504
X10.3571Y-1.5504
X10.3571Y-1.6504
X10.3577Y-2.9165
X10.3577Y-3.0165
X10.3577Y-3.1165
X10.3577Y-3.2165
X10.5797Y-2.9173
X10.5797Y-3.0173
X10.5797Y-3.1173
X10.5797Y-3.2173
X10.5803Y-1.872
X10.5803Y-1.972
X10.5803Y-2.072
X10.5803Y-2.172
X10.5815Y-2.3929
X10.5815Y-2.4929
X10.5815Y-2.5929
X10.5815Y-2.6929
X10.6797Y-2.9173
X10.6797Y-3.0173
X10.6797Y-3.1173
X10.6797Y-3.2173
X10.6803Y-1.872
X10.6803Y-1.972
X10.6803Y-2.072
X10.6803Y-2.172
X10.6815Y-2.3929
X10.6815Y-2.4929
X10.6815Y-2.5929
X10.6815Y-2.6929
T6
X3.9133Y-1.1132
X3.9133Y-1.7132
X4.0133Y-1.1132
X4.0133Y-1.7132
X4.1133Y-1.1132
X4.1133Y-1.7132
X4.2133Y-1.1132
X4.2133Y-1.7132
X4.3133Y-1.1132
X4.3133Y-1.7132
X4.4133Y-1.1132
X4.4133Y-1.7132
X4.5133Y-1.1132
X4.5133Y-1.7132
X4.6133Y-1.1132
X4.6133Y-1.7132
X4.7133Y-1.1132
X4.7133Y-1.7132
X4.8133Y-1.1132
X4.8133Y-1.7132
X4.9133Y-1.1132
X4.9133Y-1.7132
X5.0133Y-1.1132
X5.0133Y-1.7132
X5.1133Y-1.1132
X5.1133Y-1.7132
X5.2133Y-1.1132
X5.2133Y-1.7132
X5.3133Y-1.1132
X5.3133Y-1.7132
T0
M30
